<?xml version="1.0" encoding="utf-8"?>
<!-- Generator: Adobe Illustrator 22.1.0, SVG Export Plug-In . SVG Version: 6.00 Build 0)  -->
<svg version="1.1" id="Layer_1" xmlns="http://www.w3.org/2000/svg" xmlns:xlink="http://www.w3.org/1999/xlink" x="0px" y="0px"
	 viewBox="0 0 64 64" style="enable-background:new 0 0 64 64;" xml:space="preserve">
<style type="text/css">
	.st0{fill:#EF9E50;}
	.st1{fill:#414142;}
	.st2{fill:#F8CF0C;}
	.st3{fill:#FFFFFF;}
</style>
<g>
	<g>
		<path class="st0" d="M22.1,37.9c-0.4-0.5-0.8-1.3-1.5-1.6c-0.5-0.3-1.7-0.2-2,0.2c-1.6,1.9-3,3.9-4.4,5.9c-0.7,1-0.2,2.3,0.8,2.8
			c0.6,0.3,2,0.4,2.3,0c1.6-1.9,3-4,4.5-6C22,39,22,38.6,22.1,37.9z"/>
		<path class="st0" d="M27.9,45.1c-0.5-0.3-1.7,0-2.2,0.4c-0.9,0.8-1.5,1.8-2.1,2.9c-0.8,1.4,0.5,3.4,2.2,3.3c0.1,0,0.4,0,0.5-0.1
			c1.1-1.4,2.3-2.7,3.1-4.3C29.5,46.8,28.6,45.5,27.9,45.1z"/>
		<path class="st0" d="M23.1,40.4c-0.1,0.1-0.6,0.1-0.7,0.3c-1.3,1.8-2.8,3.5-3.8,5.5c-0.3,0.5,0.6,1.9,1.3,2.4
			c0.4,0.3,1.8,0.1,2.2-0.3c1.2-1.4,2.3-2.9,3.3-4.5C26.2,42.4,24.9,40.4,23.1,40.4z"/>
		<path class="st0" d="M13.8,35.7c-2.4-0.5-2.6,1.8-3.8,3.1c0.5,1.5,1.2,3.2,2.7,2.6c1.2-0.4,2.1-2,2.7-3.3
			C15.9,37,15,35.9,13.8,35.7z"/>
		<path class="st1" d="M11.3,12.3C7.8,18.5,4.5,24.5,1,30.7c1.8,1.1,3.5,2.1,5.3,3.2c3.5-6.2,6.9-12.2,10.3-18.3
			C14.8,14.5,13.2,13.5,11.3,12.3z"/>
		<path class="st2" d="M47.4,15.6c3.5,6.2,6.9,12.2,10.3,18.3c1.9-1.2,3.5-2.2,5.3-3.2c-3.5-6.2-6.9-12.2-10.3-18.3
			C50.8,13.5,49.2,14.5,47.4,15.6z"/>
		<path class="st0" d="M50.4,36.5c-5.9-5-12.3-9.2-19.7-13c-1,0.8-2.2,1.6-3.2,2.7c-1.6,1.7-3.5,2.8-5.8,3.1
			c-2.2,0.3-3.2-0.9-2.6-3.1c0.2-0.6,0.5-1.1,0.8-1.6c0.8-1.3,1.7-2.7,2.6-4c-2.2-0.6-4.3-1.3-6.6-2c-2.5,4.4-5.1,9.1-7.7,13.8
			c0.9,1.1,1.7,2.1,2.3,2.8c1.4-0.2,2.6-0.7,3.5-0.5c1,0.3,1.9,1.3,2.8,2c2.1-2.7,5.5-2.5,6.5,2.6c2.6,0.1,2.9,2.5,4,4.1
			c1.1,0.7,2.4,1.5,2.8,2.6c0.4,1.1-0.1,2.5-0.3,3.9c5.6,1.7,7.4,1.5,8.8-1.2c-1-0.5-2.1-1-3.1-1.5c-1-0.5-2-1.1-3-1.6
			c0.1-0.2,0.2-0.4,0.2-0.5c0.6,0.2,1.2,0.3,1.7,0.5c1.6,0.7,3.2,1.6,4.9,2.3c2.2,0.8,3.6-0.3,3.6-2.7c-2.6-1.5-5.2-3.1-7.9-4.7
			c0.1-0.2,0.2-0.4,0.3-0.6c0.5,0.2,1,0.2,1.5,0.5C39,41.6,41,43,43.2,44c0.8,0.4,2.2,0.3,3-0.1c0.6-0.3,0.8-1.5,1.2-2.3
			c-3.3-2.4-6.7-3.9-9.4-6.5c0.6-0.1,1.1,0.1,1.5,0.4c2.7,1.6,5.3,3.2,8,4.8c1.4,0.9,2.6,0.7,3.5-0.4C51.9,38.8,51.7,37.6,50.4,36.5
			z"/>
		<path class="st0" d="M41.4,18.1c-3.9-0.8-7.8-1-11.7-0.6c-2.7,0.3-5,1.2-6.4,3.8c-0.7,1.3-1.7,2.4-2.4,3.7c-0.5,0.8-0.8,1.8-1.2,3
			c1,0.1,1.5,0.2,2.1,0.2c2.2-0.2,3.8-1.5,5.2-3.1c2-2.4,3.8-2.9,6.5-1.2c5.3,3.4,10.6,6.9,15.8,10.4c0.7,0.4,1.3,0.9,2.1,1.5
			c1.4-1.2,2.8-2.3,4.2-3.6C53,27.5,50.4,23,48,18.8C45.6,18.6,43.5,18.5,41.4,18.1z"/>
	</g>
	<circle class="st3" cx="4.6" cy="29.8" r="1.2"/>
</g>
</svg>
